<?xml version="1.0" encoding="UTF-8" standalone="no"?>
<svg
   xmlns:dc="http://purl.org/dc/elements/1.1/"
   xmlns:cc="http://creativecommons.org/ns#"
   xmlns:rdf="http://www.w3.org/1999/02/22-rdf-syntax-ns#"
   xmlns:svg="http://www.w3.org/2000/svg"
   xmlns="http://www.w3.org/2000/svg"
   version="1.1"
   id="svg2"
   viewBox="0 0 499.99998 467.72197"
   height="467.72198"
   width="500">
  <defs
     id="defs4" />
  <metadata
     id="metadata7">
    <rdf:RDF>
      <cc:Work
         rdf:about="">
        <dc:format>image/svg+xml</dc:format>
        <dc:type
           rdf:resource="http://purl.org/dc/dcmitype/StillImage" />
        <dc:title></dc:title>
      </cc:Work>
    </rdf:RDF>
  </metadata>
  <g
     transform="translate(0,-584.64009)"
     style="display:inline"
     id="layer1">
    <path
       style="color:#000000;font-style:normal;font-variant:normal;font-weight:normal;font-stretch:normal;font-size:medium;line-height:normal;font-family:sans-serif;text-indent:0;text-align:start;text-decoration:none;text-decoration-line:none;text-decoration-style:solid;text-decoration-color:#000000;letter-spacing:normal;word-spacing:normal;text-transform:none;direction:ltr;block-progression:tb;writing-mode:lr-tb;baseline-shift:baseline;text-anchor:start;white-space:normal;clip-rule:nonzero;display:inline;overflow:visible;visibility:visible;opacity:1;isolation:auto;mix-blend-mode:normal;color-interpolation:sRGB;color-interpolation-filters:linearRGB;solid-color:#000000;solid-opacity:1;fill:#ffffff;fill-opacity:1;fill-rule:nonzero;stroke:#f00000;stroke-width:26.29888725;stroke-linecap:butt;stroke-linejoin:miter;stroke-miterlimit:4;stroke-dasharray:none;stroke-dashoffset:0;stroke-opacity:1;color-rendering:auto;image-rendering:auto;shape-rendering:auto;text-rendering:auto;enable-background:accumulate"
       d="m 249.82127,597.80481 -0.62602,0 -0.62423,0.0484 c -16.93774,1.31768 -29.37291,13.02921 -36.31298,23.47891 -6.94038,10.44971 -11.06541,20.61181 -14.65553,26.27932 l -0.31737,0.50168 -0.28561,0.52187 C 136.60477,758.52688 76.388934,869.03859 16.037616,978.84813 l -1.459694,2.65429 -0.583519,3.00028 c -2.991972,15.35845 2.567928,30.8336 12.136831,40.4315 9.568903,9.598 22.518159,14.4981 36.130358,14.2706 l -0.276769,0 c 125.979357,-0.1084 251.960287,-0.2177 377.939637,-0.3258 31.68701,3.51 56.40391,-30.6594 43.49794,-61.71516 l -0.40974,-0.98652 -0.5143,-0.93098 C 416.69455,855.99771 350.73326,736.33683 285.01875,617.33173 l 0.48601,0.94024 c -3.93105,-8.14866 -11.05237,-14.56064 -17.95625,-17.443 -6.90356,-2.88236 -15.0111,-3.05866 -19.72281,-3.03184 z"
       id="path9332" />
    <g
       transform="translate(254.30884,4168.4307)"
       id="g5752">
      <rect
         style="fill:#000000;fill-opacity:1;stroke:#000000;stroke-width:0.18403608;stroke-linecap:round;stroke-linejoin:round;stroke-miterlimit:4;stroke-dasharray:none;stroke-opacity:0.48338372"
         id="rect5701"
         width="22.094831"
         height="258.16064"
         x="13.39686"
         y="-3421.7515"
         ry="11.047416" />
      <path
         style="fill:#000000;fill-opacity:1;stroke:#000000;stroke-width:0.15688723;stroke-linecap:round;stroke-linejoin:round;stroke-miterlimit:4;stroke-dasharray:none;stroke-opacity:0.48338372"
         d="m 25.326172,-3416.8691 c -0.961861,0.2471 -1.87241,0.5451 -2.707031,0.8945 l -24.166016,10.1152 0,121.7168 24.166016,10.1153 c 0.834601,0.3493 1.745196,0.6474 2.707031,0.8945 l 0,-143.7363 z m -51.322266,21.2421 -21.068359,8.8184 0,83.6152 21.068359,8.8184 0,-101.252 z m -45.517578,19.0528 -20.65039,8.6426 0,45.8613 20.65039,8.6426 0,-63.1465 z"
         id="rect5703" />
      <path
         style="fill:none;fill-opacity:1;stroke:#000000;stroke-width:6.76047897;stroke-linecap:round;stroke-linejoin:round;stroke-miterlimit:4;stroke-dasharray:none;stroke-opacity:1"
         d="m 25.326172,-3416.8691 c -0.961863,0.2471 -1.87242,0.5451 -2.707031,0.8945 l -114.783203,48.0449 0,45.8574 114.783203,48.045 c 0.834593,0.3493 1.745205,0.6474 2.707031,0.8945 l 0,-143.7363 z"
         id="path5708" />
    </g>
    <g
       transform="translate(-2152.529,-2902.5871)"
       style="display:inline"
       id="g4190">
      <path
         style="fill:#cb0000;fill-opacity:1;stroke:none;stroke-opacity:1"
         d=""
         id="path4192" />
    </g>
    <g
       transform="translate(-2152.529,-2902.5871)"
       style="display:inline"
       id="layer4" />
  </g>
</svg>
