<?xml version="1.0" encoding="UTF-8" standalone="no"?>
<svg
   xmlns:dc="http://purl.org/dc/elements/1.1/"
   xmlns:cc="http://creativecommons.org/ns#"
   xmlns:rdf="http://www.w3.org/1999/02/22-rdf-syntax-ns#"
   xmlns:svg="http://www.w3.org/2000/svg"
   xmlns="http://www.w3.org/2000/svg"
   version="1.1"
   id="svg2"
   viewBox="0 0 499.99998 467.72197"
   height="467.72198"
   width="500">
  <defs
     id="defs4" />
  <metadata
     id="metadata7">
    <rdf:RDF>
      <cc:Work
         rdf:about="">
        <dc:format>image/svg+xml</dc:format>
        <dc:type
           rdf:resource="http://purl.org/dc/dcmitype/StillImage" />
        <dc:title></dc:title>
      </cc:Work>
    </rdf:RDF>
  </metadata>
  <g
     transform="translate(0,-584.64009)"
     style="display:inline"
     id="layer1">
    <g
       transform="translate(-2152.529,-2902.5871)"
       style="display:inline"
       id="g4190">
      <path
         style="fill:#cb0000;fill-opacity:1;stroke:none;stroke-opacity:1"
         d=""
         id="path4192" />
    </g>
    <g
       transform="translate(-2152.529,-2902.5871)"
       style="display:inline"
       id="layer4" />
    <g
       transform="matrix(1.0519555,0,0,1.0519555,-1.4968797e-5,584.64009)"
       id="g9382">
      <path
         id="path9332"
         d="m 237.48275,12.514522 -0.5951,0 -0.5934,0.046 c -16.1012,1.2526 -27.9222,12.3857 -34.5195,22.3193 -6.5976,9.9336 -10.5189,19.5938 -13.9317,24.9814 l -0.3017,0.4769 -0.2715,0.4961 C 129.85795,165.29862 72.616141,270.35222 15.245541,374.73832 l -1.3876,2.5232 -0.5547,2.8521 c -2.8442,14.5999 2.4411,29.3107 11.5374,38.4346 9.0963,9.124 21.406,13.7821 34.3459,13.5658 l -0.2631,0 c 119.757309,-0.1031 239.516109,-0.207 359.273409,-0.3097 30.122,3.3366 53.61815,-29.1452 41.3496,-58.6671 l -0.3895,-0.9378 -0.4889,-0.885 c -62.5538,-113.359 -125.2573,-227.1099 -187.7262,-340.237398 l 0.462,0.8938 c -3.7369,-7.7462 -10.5065,-13.8415 -17.0694,-16.5815 -6.5626,-2.74 -14.26971,-2.9076 -18.74871,-2.8821 z"
         style="color:#000000;font-style:normal;font-variant:normal;font-weight:normal;font-stretch:normal;font-size:medium;line-height:normal;font-family:sans-serif;text-indent:0;text-align:start;text-decoration:none;text-decoration-line:none;text-decoration-style:solid;text-decoration-color:#000000;letter-spacing:normal;word-spacing:normal;text-transform:none;direction:ltr;block-progression:tb;writing-mode:lr-tb;baseline-shift:baseline;text-anchor:start;white-space:normal;clip-rule:nonzero;display:inline;overflow:visible;visibility:visible;opacity:1;isolation:auto;mix-blend-mode:normal;color-interpolation:sRGB;color-interpolation-filters:linearRGB;solid-color:#000000;solid-opacity:1;fill:#ffffff;fill-opacity:1;fill-rule:nonzero;stroke:#f00000;stroke-width:25;stroke-linecap:butt;stroke-linejoin:miter;stroke-miterlimit:4;stroke-dasharray:none;stroke-dashoffset:0;stroke-opacity:1;color-rendering:auto;image-rendering:auto;shape-rendering:auto;text-rendering:auto;enable-background:accumulate" />
      <g
         id="g9319"
         transform="matrix(0.08525759,0,0,0.08525759,135.02045,-31.185978)"
         style="stroke:#000000;stroke-width:58.64580536;stroke-miterlimit:4;stroke-dasharray:none;stroke-opacity:1">
        <path
           id="path9301"
           d="m 2033.5919,3433.8268 a 972.95465,972.95465 0 0 0 -907.3521,314.5153 792.47766,792.47766 0 0 1 -972.4443,79.1216 792.47766,792.47766 0 0 1 -231.022884,-236.3788 572.32629,565.17218 9.0907922 0 1 -141.340266,113.8286 972.95465,972.95465 0 0 0 272.907146,273.1498 972.95465,972.95465 0 0 0 1266.013204,-170.2419 792.47766,792.47766 0 0 1 972.4443,-79.1218 792.47766,792.47766 0 0 1 270.1877,305.5114 651.02112,679.63745 9.0907922 0 1 147.8566,-107.6906 972.95465,972.95465 0 0 0 -318.5883,-348.4203 972.95465,972.95465 0 0 0 -358.6611,-144.2733 z"
           style="fill:#000000;fill-opacity:1;stroke:#000000;stroke-width:58.64580536;stroke-linecap:butt;stroke-linejoin:miter;stroke-miterlimit:4;stroke-dasharray:none;stroke-opacity:1" />
        <path
           style="fill:#000000;fill-opacity:1;stroke:#000000;stroke-width:58.64580536;stroke-linecap:butt;stroke-linejoin:miter;stroke-miterlimit:4;stroke-dasharray:none;stroke-opacity:1"
           d="m 2033.5919,4013.3072 a 972.95465,972.95465 0 0 0 -907.352,314.5153 792.47766,792.47766 0 0 1 -972.44439,79.1216 792.47766,792.47766 0 0 1 -231.022884,-236.3788 572.32629,565.17218 9.0907922 0 1 -141.340266,113.8286 972.95465,972.95465 0 0 0 272.907146,273.1498 972.95465,972.95465 0 0 0 1266.013194,-170.2419 792.47766,792.47766 0 0 1 972.4443,-79.1218 792.47766,792.47766 0 0 1 270.1877,305.5114 651.02112,679.63745 9.0907922 0 1 147.8566,-107.6906 972.95465,972.95465 0 0 0 -318.5883,-348.4203 972.95465,972.95465 0 0 0 -358.6611,-144.2733 z"
           id="path9315" />
        <path
           id="path9317"
           d="m 2033.5919,2854.3465 a 972.95465,972.95465 0 0 0 -907.3521,314.5153 792.47766,792.47766 0 0 1 -972.4443,79.1216 792.47766,792.47766 0 0 1 -231.022884,-236.3788 572.32629,565.17218 9.0907922 0 1 -141.340266,113.8286 972.95465,972.95465 0 0 0 272.907146,273.1498 972.95465,972.95465 0 0 0 1266.013204,-170.2419 792.47766,792.47766 0 0 1 972.4443,-79.1218 792.47766,792.47766 0 0 1 270.1877,305.5114 651.02112,679.63745 9.0907922 0 1 147.8566,-107.6906 972.95465,972.95465 0 0 0 -318.5883,-348.4203 972.95465,972.95465 0 0 0 -358.6611,-144.2733 z"
           style="fill:#000000;fill-opacity:1;stroke:#000000;stroke-width:58.64580536;stroke-linecap:butt;stroke-linejoin:miter;stroke-miterlimit:4;stroke-dasharray:none;stroke-opacity:1" />
      </g>
    </g>
  </g>
</svg>
