<?xml version="1.0" encoding="UTF-8" standalone="no"?>
<svg
   xmlns:dc="http://purl.org/dc/elements/1.1/"
   xmlns:cc="http://creativecommons.org/ns#"
   xmlns:rdf="http://www.w3.org/1999/02/22-rdf-syntax-ns#"
   xmlns:svg="http://www.w3.org/2000/svg"
   xmlns="http://www.w3.org/2000/svg"
   version="1.1"
   id="svg2"
   viewBox="0 0 499.99998 467.72197"
   height="467.72198"
   width="500">
  <defs
     id="defs4" />
  <metadata
     id="metadata7">
    <rdf:RDF>
      <cc:Work
         rdf:about="">
        <dc:format>image/svg+xml</dc:format>
        <dc:type
           rdf:resource="http://purl.org/dc/dcmitype/StillImage" />
        <dc:title></dc:title>
      </cc:Work>
    </rdf:RDF>
  </metadata>
  <g
     transform="translate(0,-584.64009)"
     style="display:inline"
     id="layer1">
    <path
       style="color:#000000;font-style:normal;font-variant:normal;font-weight:normal;font-stretch:normal;font-size:medium;line-height:normal;font-family:sans-serif;text-indent:0;text-align:start;text-decoration:none;text-decoration-line:none;text-decoration-style:solid;text-decoration-color:#000000;letter-spacing:normal;word-spacing:normal;text-transform:none;direction:ltr;block-progression:tb;writing-mode:lr-tb;baseline-shift:baseline;text-anchor:start;white-space:normal;clip-rule:nonzero;display:inline;overflow:visible;visibility:visible;opacity:1;isolation:auto;mix-blend-mode:normal;color-interpolation:sRGB;color-interpolation-filters:linearRGB;solid-color:#000000;solid-opacity:1;fill:#ffffff;fill-opacity:1;fill-rule:nonzero;stroke:#f00000;stroke-width:26.29888725;stroke-linecap:butt;stroke-linejoin:miter;stroke-miterlimit:4;stroke-dasharray:none;stroke-dashoffset:0;stroke-opacity:1;color-rendering:auto;image-rendering:auto;shape-rendering:auto;text-rendering:auto;enable-background:accumulate"
       d="m 249.82127,597.80481 -0.62602,0 -0.62423,0.0484 c -16.93774,1.31768 -29.37291,13.02921 -36.31298,23.47891 -6.94038,10.44971 -11.06541,20.61181 -14.65553,26.27932 l -0.31737,0.50168 -0.28561,0.52187 C 136.60477,758.52688 76.388934,869.03859 16.037616,978.84813 l -1.459694,2.65429 -0.583519,3.00028 c -2.991972,15.35845 2.567928,30.8336 12.136831,40.4315 9.568903,9.598 22.518159,14.4981 36.130358,14.2706 l -0.276769,0 c 125.979357,-0.1084 251.960287,-0.2177 377.939637,-0.3258 31.68701,3.51 56.40391,-30.6594 43.49794,-61.71516 l -0.40974,-0.98652 -0.5143,-0.93098 C 416.69455,855.99771 350.73326,736.33683 285.01875,617.33173 l 0.48601,0.94024 c -3.93105,-8.14866 -11.05237,-14.56064 -17.95625,-17.443 -6.90356,-2.88236 -15.0111,-3.05866 -19.72281,-3.03184 z"
       id="path9332" />
    <path
       id="path4784"
       d="m 277.85145,802.49661 c -5.8773,0 -11.7557,4.8931 -16.2593,14.6797 l -34.4289,74.8193 c -1.9528,4.2436 -3.4763,9.0517 -4.581,14.1749 -3.1891,8.3851 -4.8349,17.4097 -4.8385,26.5295 2e-4,37.3093 26.9013,57.8412 60.0855,57.8416 33.1843,-4e-4 60.0854,-20.5323 60.0856,-57.8416 -0.018,-8.9102 -1.6049,-17.7285 -4.6673,-25.9468 -1.1142,-5.3424 -2.6824,-10.3528 -4.7093,-14.7576 l -34.4291,-74.8193 c -4.5035,-9.7866 -10.3804,-14.6797 -16.2577,-14.6797 z"
       style="fill:#000000;fill-opacity:1;stroke:#000000;stroke-width:1;stroke-linecap:square;stroke-linejoin:round;stroke-miterlimit:4;stroke-dasharray:none;stroke-opacity:0.48338372" />
    <path
       style="fill:#000000;fill-opacity:1;stroke:#000000;stroke-width:0.18479149;stroke-linecap:square;stroke-linejoin:round;stroke-miterlimit:4;stroke-dasharray:none;stroke-opacity:1"
       d="m 207.40875,769.81771 c -2.6198,0 -5.24,2.181 -7.2475,6.5435 l -15.3464,33.3501 c -0.8705,1.8915 -1.5496,4.0347 -2.0419,6.3182 -1.4215,3.7377 -2.1551,7.7604 -2.1568,11.8256 1e-4,16.6303 11.9912,25.7822 26.7827,25.7823 14.7916,-1e-4 26.7827,-9.152 26.7827,-25.7823 -0.01,-3.9717 -0.7152,-7.9025 -2.0804,-11.5658 -0.4967,-2.3813 -1.1957,-4.6146 -2.0991,-6.578 l -15.3464,-33.3501 c -2.0076,-4.3625 -4.627,-6.5435 -7.2469,-6.5435 z"
       id="path4786" />
    <g
       transform="translate(-2152.529,-2902.5871)"
       style="display:inline"
       id="g4190">
      <path
         style="fill:#cb0000;fill-opacity:1;stroke:none;stroke-opacity:1"
         d=""
         id="path4192" />
    </g>
    <g
       transform="translate(-2152.529,-2902.5871)"
       style="display:inline"
       id="layer4" />
  </g>
</svg>
