<?xml version="1.0" encoding="UTF-8" standalone="no"?>
<svg
   xmlns:dc="http://purl.org/dc/elements/1.1/"
   xmlns:cc="http://creativecommons.org/ns#"
   xmlns:rdf="http://www.w3.org/1999/02/22-rdf-syntax-ns#"
   xmlns:svg="http://www.w3.org/2000/svg"
   xmlns="http://www.w3.org/2000/svg"
   version="1.1"
   id="svg2"
   viewBox="0 0 499.99998 467.72197"
   height="467.72198"
   width="500">
  <defs
     id="defs4" />
  <metadata
     id="metadata7">
    <rdf:RDF>
      <cc:Work
         rdf:about="">
        <dc:format>image/svg+xml</dc:format>
        <dc:type
           rdf:resource="http://purl.org/dc/dcmitype/StillImage" />
        <dc:title></dc:title>
      </cc:Work>
    </rdf:RDF>
  </metadata>
  <g
     transform="translate(0,-584.64009)"
     style="display:inline"
     id="layer1">
    <g
       transform="translate(-2152.529,-2902.5871)"
       style="display:inline"
       id="g4190">
      <path
         style="fill:#cb0000;fill-opacity:1;stroke:none;stroke-opacity:1"
         d=""
         id="path4192" />
    </g>
    <g
       transform="translate(-2152.529,-2902.5871)"
       style="display:inline"
       id="layer4" />
    <g
       id="g10265">
      <path
         id="path9332"
         d="m 249.82127,597.80481 -0.62602,0 -0.62423,0.0484 c -16.93774,1.31768 -29.37291,13.02921 -36.31298,23.47891 -6.94038,10.44971 -11.06541,20.61181 -14.65553,26.27932 l -0.31737,0.50168 -0.28561,0.52187 C 136.60477,758.52688 76.388934,869.03859 16.037616,978.84813 l -1.459694,2.65429 -0.583519,3.00028 c -2.991972,15.35845 2.567928,30.8336 12.136831,40.4315 9.568903,9.598 22.518159,14.4981 36.130358,14.2706 l -0.276769,0 c 125.979357,-0.1084 251.960287,-0.2177 377.939637,-0.3258 31.68701,3.51 56.40391,-30.6594 43.49794,-61.71516 l -0.40974,-0.98652 -0.5143,-0.93098 C 416.69455,855.99771 350.73326,736.33683 285.01875,617.33173 l 0.48601,0.94024 c -3.93105,-8.14866 -11.05237,-14.56064 -17.95625,-17.443 -6.90356,-2.88236 -15.0111,-3.05866 -19.72281,-3.03184 z"
         style="color:#000000;font-style:normal;font-variant:normal;font-weight:normal;font-stretch:normal;font-size:medium;line-height:normal;font-family:sans-serif;text-indent:0;text-align:start;text-decoration:none;text-decoration-line:none;text-decoration-style:solid;text-decoration-color:#000000;letter-spacing:normal;word-spacing:normal;text-transform:none;direction:ltr;block-progression:tb;writing-mode:lr-tb;baseline-shift:baseline;text-anchor:start;white-space:normal;clip-rule:nonzero;display:inline;overflow:visible;visibility:visible;opacity:1;isolation:auto;mix-blend-mode:normal;color-interpolation:sRGB;color-interpolation-filters:linearRGB;solid-color:#000000;solid-opacity:1;fill:#ffffff;fill-opacity:1;fill-rule:nonzero;stroke:#f00000;stroke-width:26.29888725;stroke-linecap:butt;stroke-linejoin:miter;stroke-miterlimit:4;stroke-dasharray:none;stroke-dashoffset:0;stroke-opacity:1;color-rendering:auto;image-rendering:auto;shape-rendering:auto;text-rendering:auto;enable-background:accumulate" />
      <g
         id="g8893"
         transform="matrix(1.2996,0,0,1.2996,2332.6267,3936.6419)">
        <g
           transform="translate(-2152.529,-2902.5871)"
           id="g4180"
           style="fill:#000000;fill-opacity:1">
          <path
             id="path4481"
             d="m 549.59282,445.66271 c -0.5213,10e-4 -0.966,0.589 -1.0518,1.39063 l -0.032,0 -6.6051,33.50435 -10e-5,0.007 c 0.1128,4.68794 3.5207,8.42384 7.689,8.42907 4.1701,-0.003 7.5808,-3.73914 7.6936,-8.42907 l -0.013,-0.007 -6.5966,-33.50435 -0.03,0 c -0.086,-0.80253 -0.5315,-1.39062 -1.0534,-1.39063 z"
             style="display:inline;fill:#000000;fill-opacity:1;stroke:none;stroke-opacity:1" />
          <path
             style="display:inline;fill:#000000;fill-opacity:1;stroke:none;stroke-opacity:1"
             d="m 453.77032,541.97105 c 10e-4,0.52135 0.589,0.96599 1.3906,1.05189 l 1e-4,0.0319 33.5043,6.60509 0.01,4.7e-4 c 4.6879,-0.11277 8.4238,-3.52066 8.4291,-7.689 0,-4.17014 -3.7392,-7.58079 -8.4291,-7.6936 l -0.01,0.0133 -33.5043,6.59659 0,0.0305 c -0.8026,0.086 -1.3906,0.53148 -1.3907,1.05341 z"
             id="path4501" />
          <path
             id="path4503"
             d="m 549.59692,639.24502 c 0.5214,-10e-4 0.966,-0.589 1.0519,-1.39062 l 0.032,-8e-5 6.6051,-33.50436 5e-4,-0.007 c -0.1128,-4.68794 -3.5207,-8.42384 -7.689,-8.42908 -4.1702,0.003 -7.5808,3.73916 -7.6936,8.42908 l 0.013,0.007 6.5966,33.50436 0.031,-9e-5 c 0.086,0.80255 0.5314,1.39063 1.0534,1.39066 z"
             style="display:inline;fill:#000000;fill-opacity:1;stroke:none;stroke-opacity:1" />
          <path
             style="display:inline;fill:#000000;fill-opacity:1;stroke:none;stroke-opacity:1"
             d="m 646.26042,541.73483 c 0,-0.52131 -0.589,-0.966 -1.3906,-1.05187 l 0,-0.0319 -33.5044,-6.60511 -0.01,-4.6e-4 c -4.6879,0.11275 -8.4238,3.52063 -8.4291,7.68899 0,4.17014 3.7392,7.58082 8.4291,7.69363 l 0.01,-0.0133 33.5044,-6.59661 -2e-4,-0.0306 c 0.8026,-0.086 1.3907,-0.53147 1.3907,-1.05342 z"
             id="path4505" />
          <path
             style="display:inline;fill:#000000;fill-opacity:1;stroke:none;stroke-opacity:1"
             d="m 501.25382,458.84154 c -0.4509,0.26152 -0.542,0.99309 -0.2155,1.73022 l -0.028,0.016 11.0319,32.31817 0,0.006 c 2.4416,4.00348 7.2609,5.53491 10.8734,3.45529 3.6099,-2.08765 4.6956,-7.02859 2.4483,-11.14659 l -0.015,4.4e-4 -22.465,-25.71732 -0.026,0.015 c -0.4757,-0.65201 -1.1556,-0.93856 -1.6075,-0.67762 z"
             id="path4519" />
          <path
             id="path4521"
             d="m 466.42332,590.15826 c 0.2615,0.451 0.9931,0.54207 1.7302,0.21566 l 0.016,0.0276 32.3181,-11.03197 0.01,-0.005 c 4.0034,-2.44161 5.5349,-7.26088 3.4553,-10.87342 -2.0851,-3.61144 -7.0286,-4.69555 -11.1466,-2.4483 l 0,0.0165 -25.7173,22.46496 0.015,0.0264 c -0.652,0.47577 -0.9385,1.15557 -0.6776,1.60763 z"
             style="display:inline;fill:#000000;fill-opacity:1;stroke:none;stroke-opacity:1" />
          <path
             style="display:inline;fill:#000000;fill-opacity:1;stroke:none;stroke-opacity:1"
             d="m 598.04852,626.48669 c 0.4511,-0.26157 0.5421,-0.99309 0.2157,-1.73026 l 0.028,-0.0161 -11.032,-32.31818 0,-0.006 c -2.4416,-4.00348 -7.2609,-5.53491 -10.8734,-3.4553 -3.61,2.0877 -4.6956,7.02861 -2.4483,11.1466 l 0.015,-4.4e-4 22.4651,25.71733 0.027,-0.0156 c 0.4757,0.65203 1.1555,0.93862 1.6076,0.67765 z"
             id="path4523" />
          <path
             id="path4525"
             d="m 633.00652,493.70864 c -0.2607,-0.45147 -0.9931,-0.54208 -1.7302,-0.21565 l -0.016,-0.0276 -32.3182,11.032 -0.01,0.005 c -4.0035,2.4416 -5.5349,7.26086 -3.4553,10.87341 2.0851,3.61145 7.0286,4.69559 11.1466,2.44833 l 0,-0.0165 25.7174,-22.46504 -0.015,-0.0264 c 0.6521,-0.47578 0.9387,-1.15561 0.6777,-1.60764 z"
             style="display:inline;fill:#000000;fill-opacity:1;stroke:none;stroke-opacity:1" />
          <path
             id="path4527"
             d="m 465.83532,494.30217 c -0.2598,0.45194 0.027,1.13105 0.6784,1.60617 l -0.016,0.0279 25.713,22.47241 0,0.005 c 4.1162,2.24631 9.0556,1.16292 11.1443,-2.44433 2.0824,-3.61291 0.5522,-8.43474 -3.453,-10.87738 l -0.013,0.008 -32.3139,-11.03936 -0.015,0.026 c -0.7379,-0.32681 -1.47,-0.23502 -1.7309,0.21691 z"
             style="display:inline;fill:#000000;fill-opacity:1;stroke:none;stroke-opacity:1" />
          <path
             style="display:inline;fill:#000000;fill-opacity:1;stroke:none;stroke-opacity:1"
             d="m 501.32952,625.44104 c 0.452,0.25983 1.1311,-0.0271 1.6062,-0.67833 l 0.028,0.0159 22.4723,-25.71302 0.01,-0.009 c 2.2462,-4.11619 1.1629,-9.05555 -2.4444,-11.14431 -3.6114,-2.08504 -8.4347,-0.55216 -10.8774,3.45301 l 0.01,0.0143 -11.0394,32.31388 0.026,0.0154 c -0.3267,0.73803 -0.2349,1.47001 0.217,1.73105 z"
             id="path4529" />
          <path
             id="path4531"
             d="m 633.48452,591.08978 c 0.2599,-0.45207 -0.027,-1.13109 -0.6783,-1.6063 l 0.016,-0.0279 -25.7131,-22.47236 0,-0.005 c -4.1162,-2.24632 -9.0556,-1.16292 -11.1443,2.44432 -2.0825,3.613 -0.5522,8.43476 3.453,10.87739 l 0.013,-0.008 32.314,11.03931 0.016,-0.027 c 0.738,0.32683 1.47,0.23512 1.731,-0.21694 z"
             style="display:inline;fill:#000000;fill-opacity:1;stroke:none;stroke-opacity:1" />
          <path
             style="display:inline;fill:#000000;fill-opacity:1;stroke:none;stroke-opacity:1"
             d="m 597.37002,458.62162 c -0.4515,-0.26064 -1.1311,0.0271 -1.6062,0.67834 l -0.028,-0.0159 -22.4724,25.71309 -0.01,0.009 c -2.2464,4.11624 -1.163,9.05554 2.4443,11.1443 3.6115,2.08506 8.4347,0.5522 10.8774,-3.45298 l -0.01,-0.0143 11.0395,-32.314 -0.026,-0.0154 c 0.3268,-0.73809 0.2351,-1.47014 -0.217,-1.73111 z"
             id="path4533" />
        </g>
        <circle
           r="59.675598"
           cy="-2360.8518"
           cx="-1602.4662"
           id="circle4479"
           style="display:inline;fill:#fffdfe;fill-opacity:1;stroke:none;stroke-opacity:1" />
        <circle
           style="display:inline;fill:#000000;fill-opacity:1;stroke:none;stroke-opacity:1"
           id="circle4538"
           cx="-1602.996"
           cy="-2361.3816"
           r="52.959064" />
      </g>
    </g>
  </g>
</svg>
