<?xml version="1.0" standalone="no"?><!-- Generator: Gravit.io --><svg xmlns="http://www.w3.org/2000/svg" xmlns:xlink="http://www.w3.org/1999/xlink" style="isolation:isolate" viewBox="0 0 500 467.722" width="500px" height="467.722px"><defs><clipPath id="_clipPath_xDoVRATtJDOkPfrLuzRM5u0pzCbvxIq1"><rect width="500" height="467.722"/></clipPath></defs><g clip-path="url(#_clipPath_xDoVRATtJDOkPfrLuzRM5u0pzCbvxIq1)"><path d=" M 249.772 13.714 L 249.148 13.714 L 248.525 13.762 C 231.63 15.077 219.225 26.759 212.303 37.182 C 205.38 47.606 201.265 57.743 197.684 63.396 L 197.367 63.896 L 197.082 64.417 C 136.839 174.034 76.773 284.27 16.573 393.805 L 15.117 396.452 L 14.535 399.445 C 11.55 414.765 17.096 430.202 26.641 439.775 C 36.186 449.349 49.103 454.237 62.681 454.01 L 62.405 454.01 C 188.07 453.902 313.736 453.793 439.4 453.685 C 471.008 457.187 495.663 423.103 482.789 392.125 L 482.38 391.14 L 481.867 390.212 C 416.228 271.261 350.432 151.9 284.882 33.192 L 285.366 34.13 C 281.445 26.002 274.342 19.606 267.455 16.73 C 260.569 13.855 252.481 13.679 247.781 13.706 L 249.772 13.714 Z " fill="rgb(255,255,255)" vector-effect="non-scaling-stroke" stroke-width="26.233" stroke="rgb(240,0,0)" stroke-linejoin="miter" stroke-linecap="butt" stroke-miterlimit="4"/><rect x="178.13" y="224.022" width="139.65" height="135.66" transform="matrix(0.668,-0.744,0.744,0.668,-134.861,281.322)" fill="rgb(0,0,0)"/></g></svg>